<svg xmlns="http://www.w3.org/2000/svg" xmlns:xlink="http://www.w3.org/1999/xlink" width="500" zoomAndPan="magnify"
     viewBox="0 0 375 374.999991" height="500" preserveAspectRatio="xMidYMid meet" version="1.0">
    <path fill="#f3e305"
          d="M 317.601562 0 L 339.566406 31.867188 L 376.035156 18.96875 L 375.066406 57.660156 L 412.144531 68.667969 L 388.597656 99.398438 L 412.144531 130.125 L 375.066406 141.136719 L 376.035156 179.824219 L 339.566406 166.929688 L 317.601562 198.796875 L 295.664062 166.929688 L 259.195312 179.824219 L 260.164062 141.136719 L 223.085938 130.125 L 246.601562 99.398438 L 223.085938 68.667969 L 260.164062 57.660156 L 259.195312 18.96875 L 295.664062 31.867188 L 317.601562 0 "
          fill-opacity="1" fill-rule="nonzero"/>
    <path fill="#f7b60b"
          d="M 301.210938 149.902344 L 273.921875 159.550781 L 274.640625 130.625 L 246.90625 122.359375 L 264.492188 99.398438 L 246.90625 76.433594 L 274.640625 68.167969 L 273.921875 39.242188 L 301.210938 48.894531 L 317.601562 25.042969 L 334.019531 48.894531 L 361.308594 39.242188 L 360.589844 68.167969 L 388.320312 76.433594 L 370.710938 99.398438 L 388.320312 122.359375 L 360.589844 130.625 L 361.308594 159.550781 L 334.019531 149.902344 L 317.601562 173.75 L 301.210938 149.902344 "
          fill-opacity="1" fill-rule="nonzero"/>
    <path fill="#f14c46"
          d="M 353.101562 99.398438 C 353.101562 119.003906 337.207031 134.898438 317.601562 134.898438 C 297.992188 134.898438 282.101562 119.003906 282.101562 99.398438 C 282.101562 79.789062 297.992188 63.898438 317.601562 63.898438 C 337.207031 63.898438 353.101562 79.789062 353.101562 99.398438 "
          fill-opacity="1" fill-rule="nonzero"/>
    <path fill="#6dbbea"
          d="M 326.945312 163.296875 C 326.945312 73.105469 253.839844 0 163.652344 0 C 73.460938 0 0.355469 73.105469 0.355469 163.296875 C 0.355469 192.609375 8.121094 220.121094 21.65625 243.890625 L 21.65625 369.191406 C 21.65625 380.949219 31.195312 390.492188 42.953125 390.492188 C 54.714844 390.492188 64.253906 380.949219 64.253906 369.191406 L 64.253906 340.792969 C 64.253906 329.03125 73.792969 319.492188 85.554688 319.492188 C 97.3125 319.492188 106.851562 329.03125 106.851562 340.792969 L 106.851562 354.992188 C 106.851562 366.75 116.394531 376.289062 128.152344 376.289062 C 139.910156 376.289062 149.453125 366.75 149.453125 354.992188 C 149.453125 343.230469 158.992188 333.691406 170.75 333.691406 C 182.511719 333.691406 192.050781 343.230469 192.050781 354.992188 L 192.050781 390.492188 C 192.050781 402.25 201.589844 411.789062 213.351562 411.789062 C 225.109375 411.789062 234.648438 402.25 234.648438 390.492188 L 234.648438 326.59375 C 234.648438 314.832031 244.191406 305.292969 255.949219 305.292969 C 267.707031 305.292969 277.25 314.832031 277.25 326.59375 C 277.25 338.351562 286.789062 347.890625 298.546875 347.890625 C 310.308594 347.890625 319.847656 338.351562 319.847656 326.59375 L 319.847656 210.996094 C 324.449219 195.910156 326.945312 179.910156 326.945312 163.296875 "
          fill-opacity="1" fill-rule="nonzero"/>
    <path fill="#578fd3"
          d="M 220.449219 234.292969 C 130.257812 234.292969 57.152344 161.1875 57.152344 71 C 57.152344 59.128906 58.457031 47.589844 60.84375 36.441406 C 23.957031 66.394531 0.355469 112.070312 0.355469 163.296875 C 0.355469 192.609375 8.121094 220.121094 21.65625 243.890625 L 21.65625 369.191406 C 21.65625 380.949219 31.195312 390.492188 42.953125 390.492188 C 54.714844 390.492188 64.253906 380.949219 64.253906 369.191406 L 64.253906 340.792969 C 64.253906 329.03125 73.792969 319.492188 85.554688 319.492188 C 97.3125 319.492188 106.851562 329.03125 106.851562 340.792969 L 106.851562 354.992188 C 106.851562 366.75 116.394531 376.289062 128.152344 376.289062 C 139.910156 376.289062 149.453125 366.75 149.453125 354.992188 C 149.453125 343.230469 158.992188 333.691406 170.75 333.691406 C 182.511719 333.691406 192.050781 343.230469 192.050781 354.992188 L 192.050781 390.492188 C 192.050781 402.25 201.589844 411.789062 213.351562 411.789062 C 225.109375 411.789062 234.648438 402.25 234.648438 390.492188 L 234.648438 326.59375 C 234.648438 314.832031 244.191406 305.292969 255.949219 305.292969 C 267.707031 305.292969 277.25 314.832031 277.25 326.59375 C 277.25 338.351562 286.789062 347.890625 298.546875 347.890625 C 310.308594 347.890625 319.847656 338.351562 319.847656 326.59375 L 319.847656 210.996094 C 321.152344 206.699219 322.261719 202.316406 323.203125 197.878906 C 295.136719 220.648438 259.386719 234.292969 220.449219 234.292969 "
          fill-opacity="1" fill-rule="nonzero"/>
    <path fill="#b9de23"
          d="M 163.652344 141.996094 L 135.25 149.097656 L 135.25 106.496094 L 78.453125 113.597656 L 113.953125 71 L 62.339844 35.277344 C 24.59375 65.175781 0.355469 111.40625 0.355469 163.296875 C 0.355469 192.609375 8.121094 220.121094 21.65625 243.890625 L 21.65625 368 C 21.65625 379.507812 30.28125 389.851562 41.816406 390.460938 C 54.101562 391.101562 64.253906 381.339844 64.253906 369.191406 L 64.253906 292.117188 C 64.253906 267.269531 82.917969 246.414062 107.601562 243.667969 C 117.558594 242.558594 123.382812 231.882812 118.917969 222.894531 C 113.757812 212.605469 122.160156 200.707031 133.585938 202.125 L 163.652344 205.894531 L 163.652344 141.996094 "
          fill-opacity="1" fill-rule="nonzero"/>
    <path fill="#b9de23"
          d="M 254.699219 27.734375 L 206.25 56.796875 L 241.75 78.097656 L 213.351562 106.496094 L 213.351562 141.996094 L 255.949219 149.097656 L 234.648438 191.695312 L 277.25 212.996094 L 277.25 326.59375 C 277.25 338.351562 286.789062 347.890625 298.546875 347.890625 C 310.308594 347.890625 319.847656 338.351562 319.847656 326.59375 L 319.847656 210.996094 C 324.449219 195.910156 326.945312 179.910156 326.945312 163.296875 C 326.945312 106.832031 298.269531 57.046875 254.699219 27.734375 "
          fill-opacity="1" fill-rule="nonzero"/>
    <path fill="#b9de23"
          d="M 170.75 71 L 207.832031 6.101562 C 193.769531 2.164062 178.960938 0 163.652344 0 C 147.871094 0 132.617188 2.300781 118.167969 6.460938 L 142.351562 35.5 L 142.351562 63.898438 L 170.75 71 "
          fill-opacity="1" fill-rule="nonzero"/>
    <path fill="#6dbbea"
          d="M 277.25 99.398438 L 277.25 113.597656 C 277.25 121.445312 270.898438 127.796875 263.046875 127.796875 C 255.199219 127.796875 248.847656 121.445312 248.847656 113.597656 L 248.847656 99.398438 C 248.847656 91.550781 255.199219 85.199219 263.046875 85.199219 C 270.898438 85.199219 277.25 91.550781 277.25 99.398438 "
          fill-opacity="1" fill-rule="nonzero"/>
    <path fill="#95d221"
          d="M 57.152344 71 C 57.152344 59.183594 58.429688 47.648438 60.84375 36.554688 C 23.957031 66.476562 0.355469 112.101562 0.355469 163.296875 C 0.355469 192.609375 8.121094 220.121094 21.65625 243.890625 L 21.65625 368 C 21.65625 379.507812 30.28125 389.851562 41.816406 390.460938 C 54.101562 391.101562 64.253906 381.339844 64.253906 369.191406 L 64.253906 292.117188 C 64.253906 267.269531 82.917969 246.414062 107.601562 243.667969 C 117.558594 242.558594 123.382812 231.882812 118.917969 222.894531 C 115.144531 215.378906 118.640625 207.03125 125.269531 203.648438 C 84.027344 174 57.152344 125.660156 57.152344 71 "
          fill-opacity="1" fill-rule="nonzero"/>
    <path fill="#6dbbea"
          d="M 35.855469 163.296875 L 35.855469 198.046875 C 35.855469 205.117188 40.679688 211.664062 47.667969 212.800781 C 56.570312 214.242188 64.253906 207.421875 64.253906 198.796875 L 64.253906 170.394531 C 64.253906 179.019531 71.9375 185.84375 80.839844 184.402344 C 87.828125 183.265625 92.652344 176.71875 92.652344 169.648438 L 92.652344 163.296875 C 92.652344 155.449219 86.300781 149.097656 78.453125 149.097656 L 50.054688 149.097656 C 42.207031 149.097656 35.855469 155.449219 35.855469 163.296875 "
          fill-opacity="1" fill-rule="nonzero"/>
    <path fill="#95d221"
          d="M 298.546875 298.191406 L 298.546875 238.289062 C 298.546875 227.417969 287.648438 220.261719 277.46875 224.03125 L 277.25 224.144531 L 277.25 325.398438 C 277.25 336.910156 285.875 347.253906 297.410156 347.863281 C 309.695312 348.5 319.847656 338.738281 319.847656 326.59375 L 319.847656 325.59375 C 307.617188 322.433594 298.546875 311.421875 298.546875 298.191406 "
          fill-opacity="1" fill-rule="nonzero"/>
    <path fill="#3f6dbe"
          d="M 213.351562 362.089844 L 213.351562 287.988281 C 213.351562 277.113281 202.449219 269.960938 192.273438 273.730469 L 192.050781 273.84375 L 192.050781 389.296875 C 192.050781 400.808594 200.675781 411.152344 212.210938 411.761719 C 224.5 412.398438 234.648438 402.636719 234.648438 390.492188 L 234.648438 389.492188 C 222.417969 386.332031 213.351562 375.320312 213.351562 362.089844 "
          fill-opacity="1" fill-rule="nonzero"/>
    <path fill="#3f6dbe"
          d="M 128.152344 326.59375 L 128.152344 280.886719 C 128.152344 270.015625 117.253906 262.859375 107.074219 266.632812 L 106.851562 266.742188 L 106.851562 353.800781 C 106.851562 365.308594 115.476562 375.652344 127.015625 376.261719 C 139.300781 376.902344 149.453125 367.140625 149.453125 354.992188 L 149.453125 353.992188 C 137.222656 350.832031 128.152344 339.820312 128.152344 326.59375 "
          fill-opacity="1" fill-rule="nonzero"/>
    <path fill="#6cc02e"
          d="M 42.953125 340.792969 L 42.953125 259.585938 C 42.953125 248.714844 32.054688 241.558594 21.875 245.332031 L 21.65625 245.441406 L 21.65625 368 C 21.65625 379.507812 30.28125 389.851562 41.816406 390.460938 C 54.101562 391.101562 64.253906 381.339844 64.253906 369.191406 L 64.253906 368.191406 C 52.023438 365.03125 42.953125 354.019531 42.953125 340.792969 "
          fill-opacity="1" fill-rule="nonzero"/>
    <path fill="#578fd3"
          d="M 92.457031 172.28125 C 86.691406 165.042969 81.558594 157.277344 77.09375 149.097656 L 50.054688 149.097656 C 42.207031 149.097656 35.855469 155.449219 35.855469 163.296875 L 35.855469 198.046875 C 35.855469 205.117188 40.679688 211.664062 47.667969 212.800781 C 56.570312 214.242188 64.253906 207.421875 64.253906 198.796875 L 64.253906 170.394531 C 64.253906 178.246094 70.605469 184.59375 78.453125 184.59375 C 85.636719 184.59375 91.515625 179.214844 92.457031 172.28125 "
          fill-opacity="1" fill-rule="nonzero"/>
    <path fill="#3f6dbe"
          d="M 50.054688 191.695312 L 50.054688 149.097656 C 42.207031 149.097656 35.855469 155.449219 35.855469 163.296875 L 35.855469 197.878906 C 35.855469 205.507812 41.429688 212.414062 49.027344 212.96875 C 54.769531 213.355469 59.789062 210.304688 62.394531 205.699219 C 55.433594 204.785156 50.054688 198.90625 50.054688 191.695312 "
          fill-opacity="1" fill-rule="nonzero"/>
    <path fill="#3f6dbe"
          d="M 248.847656 283.992188 C 244.9375 283.992188 241.75 280.804688 241.75 276.894531 L 241.75 234.292969 C 241.75 230.382812 244.9375 227.195312 248.847656 227.195312 C 252.757812 227.195312 255.949219 230.382812 255.949219 234.292969 L 255.949219 276.894531 C 255.949219 280.804688 252.757812 283.992188 248.847656 283.992188 "
          fill-opacity="1" fill-rule="nonzero"/>
    <path fill="#3f6dbe"
          d="M 149.453125 305.292969 C 145.539062 305.292969 142.351562 302.101562 142.351562 298.191406 L 142.351562 255.59375 C 142.351562 251.683594 145.539062 248.492188 149.453125 248.492188 C 153.363281 248.492188 156.550781 251.683594 156.550781 255.59375 L 156.550781 298.191406 C 156.550781 302.101562 153.363281 305.292969 149.453125 305.292969 "
          fill-opacity="1" fill-rule="nonzero"/>
    <path fill="#578fd3"
          d="M 220.449219 255.59375 C 216.539062 255.59375 213.351562 252.40625 213.351562 248.492188 L 213.351562 220.09375 C 213.351562 216.183594 216.539062 212.996094 220.449219 212.996094 C 224.359375 212.996094 227.550781 216.183594 227.550781 220.09375 L 227.550781 248.492188 C 227.550781 252.40625 224.359375 255.59375 220.449219 255.59375 "
          fill-opacity="1" fill-rule="nonzero"/>
    <path fill="#578fd3"
          d="M 192.050781 248.492188 C 188.140625 248.492188 184.949219 245.304688 184.949219 241.394531 L 184.949219 198.796875 C 184.949219 194.882812 188.140625 191.695312 192.050781 191.695312 C 195.960938 191.695312 199.148438 194.882812 199.148438 198.796875 L 199.148438 241.394531 C 199.148438 245.304688 195.960938 248.492188 192.050781 248.492188 "
          fill-opacity="1" fill-rule="nonzero"/>
    <path fill="#578fd3"
          d="M 177.851562 127.796875 C 173.941406 127.796875 170.75 124.609375 170.75 120.695312 L 170.75 92.296875 C 170.75 88.386719 173.941406 85.199219 177.851562 85.199219 C 181.761719 85.199219 184.949219 88.386719 184.949219 92.296875 L 184.949219 120.695312 C 184.949219 124.609375 181.761719 127.796875 177.851562 127.796875 "
          fill-opacity="1" fill-rule="nonzero"/>
    <path fill="#6dbbea"
          d="M 291.449219 198.796875 C 287.539062 198.796875 284.347656 195.605469 284.347656 191.695312 L 284.347656 156.195312 C 284.347656 152.285156 287.539062 149.097656 291.449219 149.097656 C 295.359375 149.097656 298.546875 152.285156 298.546875 156.195312 L 298.546875 191.695312 C 298.546875 195.605469 295.359375 198.796875 291.449219 198.796875 "
          fill-opacity="1" fill-rule="nonzero"/>
    <path fill="#3f6dbe"
          d="M 220.449219 255.59375 C 224.359375 255.59375 227.550781 252.40625 227.550781 248.492188 L 227.550781 233.988281 C 225.191406 234.074219 222.835938 234.292969 220.449219 234.292969 C 218.066406 234.292969 215.707031 234.210938 213.351562 234.101562 L 213.351562 248.492188 C 213.351562 252.40625 216.539062 255.59375 220.449219 255.59375 "
          fill-opacity="1" fill-rule="nonzero"/>
    <path fill="#3f6dbe"
          d="M 192.050781 248.492188 C 195.960938 248.492188 199.148438 245.304688 199.148438 241.394531 L 199.148438 232.851562 C 194.351562 232.242188 189.609375 231.410156 184.949219 230.382812 L 184.949219 241.394531 C 184.949219 245.304688 188.140625 248.492188 192.050781 248.492188 "
          fill-opacity="1" fill-rule="nonzero"/>
    <path fill="#578fd3"
          d="M 263.046875 99.398438 C 263.046875 94.15625 260.164062 89.636719 255.949219 87.167969 C 251.734375 89.636719 248.847656 94.15625 248.847656 99.398438 L 248.847656 112.847656 C 248.847656 113.097656 248.90625 113.347656 248.90625 113.597656 L 248.847656 113.597656 C 248.847656 121.445312 255.199219 127.796875 263.046875 127.796875 C 270.898438 127.796875 277.25 121.445312 277.25 113.597656 C 269.398438 113.597656 263.046875 107.246094 263.046875 99.398438 "
          fill-opacity="1" fill-rule="nonzero"/>
</svg>